<svg xmlns="http://www.w3.org/2000/svg" width="24" height="24" fill="none" viewBox="0 0 24 24"><path fill="url(#paint0_linear_201_4788)" d="M17 1H6.99999C6.17768 1.03129 5.40104 1.38618 4.83915 1.98739C4.27727 2.58861 3.97566 3.38746 3.99999 4.21V19.79C3.98949 20.3929 4.14901 20.9865 4.46028 21.503C4.77155 22.0194 5.22199 22.4377 5.75999 22.71C6.24026 22.9459 6.77807 23.0392 7.30975 22.979C7.84142 22.9187 8.3447 22.7074 8.75999 22.37L11.44 20.26C11.5921 20.1349 11.783 20.0664 11.98 20.0664C12.177 20.0664 12.3679 20.1349 12.52 20.26L15.2 22.37C15.6164 22.7052 16.1195 22.9151 16.6507 22.9753C17.1818 23.0355 17.7191 22.9435 18.2 22.71C18.7455 22.4433 19.2041 22.0274 19.5227 21.5106C19.8413 20.9937 20.0068 20.3971 20 19.79V4.21C20.0243 3.38746 19.7227 2.58861 19.1608 1.98739C18.5989 1.38618 17.8223 1.03129 17 1ZM15.27 7.77L12.65 10.39C12.5566 10.4827 12.4457 10.556 12.3239 10.6058C12.2021 10.6555 12.0716 10.6808 11.94 10.68C11.8084 10.6808 11.6779 10.6555 11.5561 10.6058C11.4342 10.556 11.3234 10.4827 11.23 10.39L9.91999 9.08C9.73169 8.8917 9.6259 8.6363 9.6259 8.37C9.6259 8.1037 9.73169 7.8483 9.91999 7.66C10.1083 7.4717 10.3637 7.36591 10.63 7.36591C10.8963 7.36591 11.1517 7.4717 11.34 7.66L11.94 8.27L13.85 6.35C14.0383 6.1617 14.2937 6.05591 14.56 6.05591C14.8263 6.05591 15.0817 6.1617 15.27 6.35C15.4583 6.5383 15.5641 6.7937 15.5641 7.06C15.5641 7.3263 15.4583 7.5817 15.27 7.77Z"/><path fill="url(#paint1_linear_201_4788)" d="M15.27 7.77L12.65 10.39C12.5566 10.4827 12.4458 10.556 12.3239 10.6058C12.2021 10.6555 12.0716 10.6808 11.94 10.68C11.8084 10.6808 11.6779 10.6555 11.5561 10.6058C11.4343 10.556 11.3234 10.4827 11.23 10.39L9.92001 9.08C9.7317 8.8917 9.62592 8.6363 9.62592 8.37C9.62592 8.1037 9.7317 7.8483 9.92001 7.66C10.1083 7.4717 10.3637 7.36591 10.63 7.36591C10.8963 7.36591 11.1517 7.4717 11.34 7.66L11.94 8.27L13.85 6.35C14.0383 6.1617 14.2937 6.05591 14.56 6.05591C14.8263 6.05591 15.0817 6.1617 15.27 6.35C15.4583 6.5383 15.5641 6.7937 15.5641 7.06C15.5641 7.3263 15.4583 7.5817 15.27 7.77Z"/><defs><linearGradient id="paint0_linear_201_4788" x1="12" x2="12" y1="1" y2="22.997" gradientUnits="userSpaceOnUse"><stop stop-color="#FFDE00"/><stop offset="1" stop-color="#FD5900"/></linearGradient><linearGradient id="paint1_linear_201_4788" x1="12.595" x2="12.595" y1="6.056" y2="10.68" gradientUnits="userSpaceOnUse"><stop stop-color="#FEFED5"/><stop offset="1" stop-color="#FFE59A"/></linearGradient></defs></svg>