<svg width="28" height="28" fill="currentColor" viewBox="0 0 24 24" xmlns="http://www.w3.org/2000/svg">
   <path d="M19.5 3.25a1.25 1.25 0 0 1 1.25 1.25v15a1.25 1.25 0 0 1-1.25 1.25h-15a1.25 1.25 0 0 1-1.25-1.25v-15A1.25 1.25 0 0 1 4.5 3.25h15ZM4.5 2A2.5 2.5 0 0 0 2 4.5v15A2.5 2.5 0 0 0 4.5 22h15a2.5 2.5 0 0 0 2.5-2.5v-15A2.5 2.5 0 0 0 19.5 2h-15Z"></path>
   <path d="M15.712 8.212a.937.937 0 0 1 1.34 1.313l-4.991 6.237a.937.937 0 0 1-1.35.025L7.405 12.48a.937.937 0 1 1 1.325-1.325l2.617 2.616L15.69 8.24c.007-.01.014-.02.023-.028Z"></path>
</svg>