<svg xmlns="http://www.w3.org/2000/svg" width="64" height="64" fill="none" viewBox="0 0 64 64"><rect width="48" height="48" x="8" y="8" fill="url(#paint0_linear)" rx="8"/><g filter="url(#filter0_if)"><rect width="48" height="48" x="8" y="8" fill="#fff" fill-opacity=".08" rx="8"/></g><g filter="url(#filter1_if)"><rect width="48" height="48" x="8" y="8" fill="#fff" fill-opacity=".08" rx="8"/></g><g filter="url(#filter2_i)"><path fill="#fff" d="M45.8409 25.1919C45.5548 24.9531 45.2073 24.7995 44.8381 24.7486C44.4689 24.6978 44.0928 24.7518 43.7528 24.9044L37.4298 27.7147L33.7483 21.0879C33.5751 20.7761 33.3217 20.5163 33.0143 20.3354C32.7069 20.1545 32.3567 20.0591 32 20.0591C31.6433 20.0591 31.2931 20.1545 30.9857 20.3354C30.6783 20.5163 30.4249 20.7761 30.2517 21.0879L26.5701 27.7146L20.2461 24.9039C19.9058 24.7527 19.5301 24.6995 19.1613 24.7503C18.7924 24.8011 18.4451 24.9538 18.1583 25.1913C17.8716 25.4288 17.6568 25.7416 17.5382 26.0945C17.4195 26.4475 17.4018 26.8265 17.4869 27.189L20.6676 40.7306C20.7281 40.9928 20.8414 41.2398 21.0007 41.4567C21.1599 41.6736 21.3616 41.8558 21.5936 41.9921C21.8268 42.1293 22.0852 42.2184 22.3535 42.2538C22.6218 42.2893 22.8944 42.2705 23.1553 42.1985C28.9415 40.6011 35.0523 40.6005 40.8389 42.1968C41.0996 42.2687 41.3721 42.2874 41.6403 42.252C41.9084 42.2165 42.1667 42.1276 42.3998 41.9904C42.6317 41.8542 42.8334 41.6722 42.9926 41.4554C43.1518 41.2387 43.2652 40.9918 43.3258 40.7299L46.512 27.1901C46.5986 26.8276 46.5817 26.448 46.4631 26.0947C46.3444 25.7414 46.1288 25.4286 45.8409 25.1919Z"/></g><defs><filter id="filter0_if" width="56" height="56" x="4" y="4" color-interpolation-filters="sRGB" filterUnits="userSpaceOnUse"><feFlood flood-opacity="0" result="BackgroundImageFix"/><feBlend in="SourceGraphic" in2="BackgroundImageFix" result="shape"/><feColorMatrix in="SourceAlpha" result="hardAlpha" values="0 0 0 0 0 0 0 0 0 0 0 0 0 0 0 0 0 0 127 0"/><feMorphology in="SourceAlpha" radius="1" result="effect1_innerShadow"/><feOffset dx="4" dy="4"/><feGaussianBlur stdDeviation="4"/><feComposite in2="hardAlpha" k2="-1" k3="1" operator="arithmetic"/><feColorMatrix values="0 0 0 0 1 0 0 0 0 1 0 0 0 0 1 0 0 0 0.32 0"/><feBlend in2="shape" result="effect1_innerShadow"/><feGaussianBlur result="effect2_foregroundBlur" stdDeviation="2"/></filter><filter id="filter1_if" width="56" height="56" x="4" y="4" color-interpolation-filters="sRGB" filterUnits="userSpaceOnUse"><feFlood flood-opacity="0" result="BackgroundImageFix"/><feBlend in="SourceGraphic" in2="BackgroundImageFix" result="shape"/><feColorMatrix in="SourceAlpha" result="hardAlpha" values="0 0 0 0 0 0 0 0 0 0 0 0 0 0 0 0 0 0 127 0"/><feMorphology in="SourceAlpha" radius="1" result="effect1_innerShadow"/><feOffset dx="-4" dy="-4"/><feGaussianBlur stdDeviation="4"/><feComposite in2="hardAlpha" k2="-1" k3="1" operator="arithmetic"/><feColorMatrix values="0 0 0 0 1 0 0 0 0 1 0 0 0 0 1 0 0 0 0.32 0"/><feBlend in2="shape" result="effect1_innerShadow"/><feGaussianBlur result="effect2_foregroundBlur" stdDeviation="2"/></filter><filter id="filter2_i" width="30.133" height="23.212" x="16.434" y="19.059" color-interpolation-filters="sRGB" filterUnits="userSpaceOnUse"><feFlood flood-opacity="0" result="BackgroundImageFix"/><feBlend in="SourceGraphic" in2="BackgroundImageFix" result="shape"/><feColorMatrix in="SourceAlpha" result="hardAlpha" values="0 0 0 0 0 0 0 0 0 0 0 0 0 0 0 0 0 0 127 0"/><feOffset dx="-1" dy="-1"/><feGaussianBlur stdDeviation="1"/><feComposite in2="hardAlpha" k2="-1" k3="1" operator="arithmetic"/><feColorMatrix values="0 0 0 0 0 0 0 0 0 0 0 0 0 0 0 0 0 0 0.16 0"/><feBlend in2="shape" result="effect1_innerShadow"/></filter><linearGradient id="paint0_linear" x1="8" x2="56" y1="8" y2="56" gradientUnits="userSpaceOnUse"><stop stop-color="#FFB800"/><stop offset=".61" stop-color="#FF4D00"/></linearGradient></defs></svg>