<svg xmlns="http://www.w3.org/2000/svg" enable-background="new 0 0 47.5 47.5" viewBox="0 0 47.5 47.5"><g transform="matrix(1.25 0 0 -1.25 0 47.5)"><path fill="#bdddf4" d="m 0,0 -6,0 -7,-9 10,0 3,9 z" transform="translate(14 34)"/><path fill="#5dadec" d="m 0,0 -7,9 -6,0 3,-9 10,0 z" transform="translate(37 25)"/><path fill="#4289c1" d="M 0,0 10,0 -8,-21 0,0 Z" transform="translate(27 25)"/><path fill="#8ccaf7" d="M 0,0 -10,0 8,-21 0,0 Z" transform="translate(11 25)"/><path fill="#8ccaf7" d="M 0,0 -3,-9 13,-9 10,0 0,0 Z" transform="translate(14 34)"/><path fill="#5dadec" d="M 0,0 -8,21 8,21 0,0 Z" transform="translate(19 4)"/></g></svg>