<svg xmlns="http://www.w3.org/2000/svg" data-name="Layer 51" viewBox="0 0 32 32"><defs><linearGradient id="a" x1="5.311" x2="26.689" y1="5.311" y2="26.689" gradientUnits="userSpaceOnUse"><stop offset="0" stop-color="#8e2de2"/><stop offset="1" stop-color="#4a00e0"/></linearGradient></defs><path fill="url(#a)" d="M29.971,16a4.953,4.953,0,0,1,.451-1.562,4.46,4.46,0,0,0,.439-3.087,4.745,4.745,0,0,0-2.287-2.287A5.169,5.169,0,0,1,27.291,8.1a4.783,4.783,0,0,1-.571-1.473,4.613,4.613,0,0,0-1.55-2.772A4.975,4.975,0,0,0,22,3.308a5.564,5.564,0,0,1-1.7-.073,5.032,5.032,0,0,1-1.338-.857A4.948,4.948,0,0,0,16,1a4.948,4.948,0,0,0-2.969,1.377,5.032,5.032,0,0,1-1.338.857,5.625,5.625,0,0,1-1.7.073,4.978,4.978,0,0,0-3.165.546,4.605,4.605,0,0,0-1.55,2.771A4.783,4.783,0,0,1,4.709,8.1a5.16,5.16,0,0,1-1.283.966,4.758,4.758,0,0,0-2.288,2.288,4.46,4.46,0,0,0,.439,3.087A4.953,4.953,0,0,1,2.029,16a4.953,4.953,0,0,1-.451,1.562,4.46,4.46,0,0,0-.439,3.087,4.745,4.745,0,0,0,2.287,2.287,5.169,5.169,0,0,1,1.284.968,4.783,4.783,0,0,1,.571,1.473,4.613,4.613,0,0,0,1.55,2.772A4.979,4.979,0,0,0,10,28.692a5.621,5.621,0,0,1,1.7.073,5.032,5.032,0,0,1,1.338.857A4.948,4.948,0,0,0,16,31a4.948,4.948,0,0,0,2.969-1.377,5.032,5.032,0,0,1,1.338-.857,5.592,5.592,0,0,1,1.7-.073,4.964,4.964,0,0,0,3.165-.546,4.605,4.605,0,0,0,1.55-2.771,4.783,4.783,0,0,1,.571-1.473,5.16,5.16,0,0,1,1.283-.966,4.758,4.758,0,0,0,2.288-2.288,4.46,4.46,0,0,0-.439-3.087A4.953,4.953,0,0,1,29.971,16Zm-1.406,2.3a3.245,3.245,0,0,1,.4,1.7,3.507,3.507,0,0,1-1.446,1.229A6.446,6.446,0,0,0,25.7,22.691a6.174,6.174,0,0,0-.905,2.144,3.293,3.293,0,0,1-.768,1.671,3.7,3.7,0,0,1-1.925.188,6.892,6.892,0,0,0-2.389.161,6.465,6.465,0,0,0-1.974,1.189A3.518,3.518,0,0,1,16,29a3.518,3.518,0,0,1-1.739-.955,6.465,6.465,0,0,0-1.974-1.189,4.981,4.981,0,0,0-1.485-.19c-0.3,0-.6.016-0.9,0.029a3.7,3.7,0,0,1-1.925-.187,3.3,3.3,0,0,1-.768-1.671A6.174,6.174,0,0,0,6.3,22.692a6.44,6.44,0,0,0-1.823-1.457,3.509,3.509,0,0,1-1.445-1.229,3.245,3.245,0,0,1,.4-1.7A6.364,6.364,0,0,0,4.029,16a6.364,6.364,0,0,0-.594-2.3,3.245,3.245,0,0,1-.4-1.7,3.507,3.507,0,0,1,1.446-1.229A6.446,6.446,0,0,0,6.3,9.309a6.174,6.174,0,0,0,.905-2.144,3.293,3.293,0,0,1,.768-1.671A3.657,3.657,0,0,1,9.9,5.306a6.892,6.892,0,0,0,2.389-.161,6.465,6.465,0,0,0,1.974-1.189A3.518,3.518,0,0,1,16,3a3.518,3.518,0,0,1,1.739.955,6.465,6.465,0,0,0,1.974,1.189,6.935,6.935,0,0,0,2.389.161,3.681,3.681,0,0,1,1.925.188,3.3,3.3,0,0,1,.768,1.671A6.174,6.174,0,0,0,25.7,9.308a6.44,6.44,0,0,0,1.823,1.457,3.509,3.509,0,0,1,1.445,1.229,3.245,3.245,0,0,1-.4,1.7,6.364,6.364,0,0,0-.594,2.3A6.364,6.364,0,0,0,28.565,18.3ZM12,14a2,2,0,1,1,2-2A2,2,0,0,1,12,14Zm10,6a2,2,0,1,1-2-2A2,2,0,0,1,22,20Zm-2.143-8.485-6,10a1,1,0,0,1-1.715-1.029l6-10A1,1,0,1,1,19.857,11.515Z"/></svg>