<svg width="28" height="28" fill="none" stroke="currentColor" stroke-linecap="round" stroke-linejoin="round" stroke-width="2" viewBox="0 0 24 24" xmlns="http://www.w3.org/2000/svg">
   <path d="M4.75 5.75a1 1 0 0 1 1-1h3.5a1 1 0 0 1 1 1v3.5a1 1 0 0 1-1 1h-3.5a1 1 0 0 1-1-1v-3.5Z"></path>
   <path d="M4.75 14.75a1 1 0 0 1 1-1h3.5a1 1 0 0 1 1 1v3.5a1 1 0 0 1-1 1h-3.5a1 1 0 0 1-1-1v-3.5Z"></path>
   <path d="M13.75 5.75a1 1 0 0 1 1-1h3.5a1 1 0 0 1 1 1v3.5a1 1 0 0 1-1 1h-3.5a1 1 0 0 1-1-1v-3.5Z"></path>
   <path d="M13.75 14.75a1 1 0 0 1 1-1h3.5a1 1 0 0 1 1 1v3.5a1 1 0 0 1-1 1h-3.5a1 1 0 0 1-1-1v-3.5Z"></path>
</svg>