<svg width="28" height="28" fill="currentColor" viewBox="0 0 24 24" xmlns="http://www.w3.org/2000/svg">
   <path d="M11.28 4.92a.6.6 0 0 1 .6-.6h8.4a.6.6 0 0 1 .6.6v1.2a.6.6 0 0 1-.6.6h-8.4a.6.6 0 0 1-.6-.6v-1.2Zm-8.4 11.4a3.6 3.6 0 1 1 7.2 0 3.6 3.6 0 0 1-7.2 0Zm8.4-1.8a.6.6 0 0 1 .6-.6h8.4a.6.6 0 0 1 .6.6v1.2a.6.6 0 0 1-.6.6h-8.4a.6.6 0 0 1-.6-.6v-1.2Zm0-6a.6.6 0 0 1 .6-.6h6a.6.6 0 1 1 0 1.2h-6a.6.6 0 0 1-.6-.6Zm0 9.6a.6.6 0 0 1 .6-.6h6a.6.6 0 1 1 0 1.2h-6a.6.6 0 0 1-.6-.6Zm-4.8-15a3.6 3.6 0 1 0 0 7.2 3.6 3.6 0 0 0 0-7.2Zm0 5.4a1.8 1.8 0 1 1 0-3.6 1.8 1.8 0 0 1 0 3.6Z"></path>
</svg>