<svg xmlns="http://www.w3.org/2000/svg" width="24" height="24" fill="none" viewBox="0 0 24 24"><path fill="url(#paint0_linear_201_4395)" d="M22.0701 12.09L18.1501 14.94C18.1059 14.9725 18.0727 15.0176 18.0549 15.0694C18.037 15.1212 18.0353 15.1772 18.0501 15.23L19.5501 19.83C19.7049 20.2837 19.7087 20.7753 19.5609 21.2314C19.413 21.6874 19.1216 22.0834 18.7301 22.36C18.3433 22.6414 17.8784 22.7952 17.4001 22.8C16.9215 22.7965 16.4562 22.6426 16.0701 22.36L12.1501 19.52C12.1075 19.4859 12.0546 19.4674 12.0001 19.4674C11.9455 19.4674 11.8926 19.4859 11.8501 19.52L7.93006 22.36C7.54378 22.642 7.07797 22.7943 6.59968 22.7948C6.12139 22.7952 5.65527 22.644 5.26841 22.3627C4.88155 22.0815 4.59389 21.6847 4.44684 21.2296C4.29978 20.7745 4.30091 20.2844 4.45006 19.83L6.00006 15.23C6.01479 15.1772 6.01311 15.1212 5.99524 15.0694C5.97738 15.0176 5.94419 14.9725 5.90006 14.94L1.93006 12.09C1.54314 11.8096 1.25505 11.4138 1.10717 10.9594C0.959292 10.5051 0.95923 10.0155 1.10699 9.56111C1.25476 9.1067 1.54275 8.71082 1.9296 8.43033C2.31644 8.14985 2.78223 7.99919 3.26006 8H8.10006C8.15585 8.00222 8.21077 7.98571 8.25608 7.95308C8.30139 7.92046 8.33447 7.87361 8.35006 7.82L9.85006 3.22C9.99725 2.76565 10.2846 2.3696 10.6709 2.0887C11.0571 1.8078 11.5225 1.65649 12.0001 1.65649C12.4777 1.65649 12.943 1.8078 13.3293 2.0887C13.7155 2.3696 14.0029 2.76565 14.1501 3.22L15.6501 7.82C15.6656 7.87361 15.6987 7.92046 15.744 7.95308C15.7893 7.98571 15.8443 8.00222 15.9001 8H20.7401C21.2179 7.99919 21.6837 8.14985 22.0705 8.43033C22.4574 8.71082 22.7454 9.1067 22.8931 9.56111C23.0409 10.0155 23.0408 10.5051 22.8929 10.9594C22.7451 11.4138 22.457 11.8096 22.0701 12.09Z"/><defs><linearGradient id="paint0_linear_201_4395" x1="12" x2="12" y1="1.656" y2="22.8" gradientUnits="userSpaceOnUse"><stop stop-color="#FFDE00"/><stop offset="1" stop-color="#FD5900"/></linearGradient></defs></svg>