<svg xmlns="http://www.w3.org/2000/svg" width="32" height="32" viewBox="0 0 32 32"><path d="M5 6A1.0000999 1.0000999 0 0 0 4 7v8a1.0000999 1.0000999 0 0 0 1 1h8a1.0000999 1.0000999 0 0 0 1-1V7A1.0000999 1.0000999 0 0 0 13 6zM7 18a1.0001 1.0001 0 0 0-1 1v6a1.0001 1.0001 0 0 0 1 1h6a1.0001 1.0001 0 0 0 1-1v-6a1.0001 1.0001 0 0 0-1-1zm1 2h4v4H8zM17 18a1.0000999 1.0000999 0 0 0-1 1v8a1.0000999 1.0000999 0 0 0 1 1h8a1.0000999 1.0000999 0 0 0 1-1v-8a1.0000999 1.0000999 0 0 0-1-1zM17 4a1.0000999 1.0000999 0 0 0-1 1v10a1.0000999 1.0000999 0 0 0 1 1h10a1.0000999 1.0000999 0 0 0 1-1V5A1.0000999 1.0000999 0 0 0 27 4z" color="#000" font-family="sans-serif" font-weight="400" overflow="visible" style="line-height:normal;font-variant-ligatures:normal;font-variant-position:normal;font-variant-caps:normal;font-variant-numeric:normal;font-variant-alternates:normal;font-feature-settings:normal;text-indent:0;text-align:start;text-decoration-line:none;text-decoration-style:solid;text-decoration-color:#000;text-transform:none;text-orientation:mixed;shape-padding:0;isolation:auto;mix-blend-mode:normal"/></svg>